# xmcd CD database file
#
# Track frame offsets:
#	150
#	25216
#	50326
#	80400
#	115691
#	148776
#	193763
#	223361
#	261767
#
# Disc length: 4115 seconds
#
# Revision: 2
# Processed by: cddbd v1.5.1PL0 Copyright (c) Steve Scherf et al.
# Submitted via: CDex 1.51
#
DISCID=83101109
DTITLE=Avalon Sound Orchestra - Niagara Falls
DYEAR=2000
DGENRE=New Age
TTITLE0=Niagara Falls
TTITLE1=Honeymoon
TTITLE2=Romance
TTITLE3=Above the Falls
TTITLE4=Misty Sky
TTITLE5=Ambience On The 'maid Of The Mist'
TTITLE6=Dream In The Mist
TTITLE7=The Sound of Water
TTITLE8=Colours above the Falls
EXTD=YEAR: 2000
EXTT0=
EXTT1=
EXTT2=
EXTT3=
EXTT4=
EXTT5=
EXTT6=
EXTT7=
EXTT8=
PLAYORDER=
